<svg xmlns="http://www.w3.org/2000/svg" style="display: none;">
  <!-- Clock icon -->
  <symbol id="clock" viewBox="0 0 24 24">
    <circle cx="12" cy="12" r="10"/>
    <polyline points="12,6 12,12 16,14"/>
  </symbol>
  
  <!-- Weather icon -->
  <symbol id="weather" viewBox="0 0 24 24">
    <path d="M18 10h-1.26A8 8 0 1 0 9 20h9a5 5 0 0 0 0-10z"/>
  </symbol>
  
  <!-- Notes icon -->
  <symbol id="notes" viewBox="0 0 24 24">
    <path d="M14,2H6A2,2 0 0,0 4,4V20A2,2 0 0,0 6,22H18A2,2 0 0,0 20,20V8L14,2M18,20H6V4H13V9H18V20Z"/>
  </symbol>
  
  <!-- Todo icon -->
  <symbol id="todo" viewBox="0 0 24 24">
    <path d="M3 17v2h6v-2H3zM3 5v2h10V5H3zm10 16v-2h8v-2h-8v-2h8v-2h-8V9h8V7h-8V5h8V3H11v18h2z"/>
  </symbol>
  
  <!-- Pomodoro icon -->
  <symbol id="pomodoro" viewBox="0 0 24 24">
    <circle cx="12" cy="12" r="10"/>
    <path d="M12 6v6l4 2"/>
  </symbol>
  
  <!-- Calendar icon -->
  <symbol id="calendar" viewBox="0 0 24 24">
    <rect x="3" y="4" width="18" height="18" rx="2" ry="2"/>
    <line x1="16" y1="2" x2="16" y2="6"/>
    <line x1="8" y1="2" x2="8" y2="6"/>
    <line x1="3" y1="10" x2="21" y2="10"/>
  </symbol>
  
  <!-- Quotes icon -->
  <symbol id="quotes" viewBox="0 0 24 24">
    <path d="M14 17h3l2-4V7h-6v6h3M6 17h3l2-4V7H5v6h3"/>
  </symbol>
  
  <!-- Stocks icon -->
  <symbol id="stocks" viewBox="0 0 24 24">
    <polyline points="22,12 18,12 15,21 9,3 6,12 2,12"/>
  </symbol>
  
  <!-- Links icon -->
  <symbol id="links" viewBox="0 0 24 24">
    <path d="M10 13a5 5 0 0 0 7.54.54l3-3a5 5 0 0 0-7.07-7.07l-1.72 1.71"/>
    <path d="M14 11a5 5 0 0 0-7.54-.54l-3 3a5 5 0 0 0 7.07 7.07l1.71-1.71"/>
  </symbol>
  
  <!-- System icon -->
  <symbol id="system" viewBox="0 0 24 24">
    <rect x="2" y="3" width="20" height="14" rx="2" ry="2"/>
    <line x1="8" y1="21" x2="16" y2="21"/>
    <line x1="12" y1="17" x2="12" y2="21"/>
  </symbol>
  
  <!-- Settings icon -->
  <symbol id="settings" viewBox="0 0 24 24">
    <circle cx="12" cy="12" r="3"/>
    <path d="M19.4 15a1.65 1.65 0 0 0 .33 1.82l.06.06a2 2 0 0 1 0 2.83 2 2 0 0 1-2.83 0l-.06-.06a1.65 1.65 0 0 0-1.82-.33 1.65 1.65 0 0 0-1 1.51V21a2 2 0 0 1-2 2 2 2 0 0 1-2-2v-.09A1.65 1.65 0 0 0 9 19.4a1.65 1.65 0 0 0-1.82.33l-.06.06a2 2 0 0 1-2.83 0 2 2 0 0 1 0-2.83l.06-.06a1.65 1.65 0 0 0 .33-1.82 1.65 1.65 0 0 0-1.51-1H3a2 2 0 0 1-2-2 2 2 0 0 1 2-2h.09A1.65 1.65 0 0 0 4.6 9a1.65 1.65 0 0 0-.33-1.82l-.06-.06a2 2 0 0 1 0-2.83 2 2 0 0 1 2.83 0l.06.06a1.65 1.65 0 0 0 1.82.33H9a1.65 1.65 0 0 0 1 1.51V3a2 2 0 0 1 2-2 2 2 0 0 1 2 2v.09a1.65 1.65 0 0 0 1 1.51 1.65 1.65 0 0 0 1.82-.33l.06-.06a2 2 0 0 1 2.83 0 2 2 0 0 1 0 2.83l-.06.06a1.65 1.65 0 0 0-.33 1.82V9a1.65 1.65 0 0 0 1.51 1H21a2 2 0 0 1 2 2 2 2 0 0 1-2 2h-.09a1.65 1.65 0 0 0-1.51 1z"/>
  </symbol>
  
  <!-- Refresh icon -->
  <symbol id="refresh" viewBox="0 0 24 24">
    <polyline points="23,4 23,10 17,10"/>
    <polyline points="1,20 1,14 7,14"/>
    <path d="M20.49 9A9 9 0 0 0 5.64 5.64L1 10m22 4l-4.64 4.36A9 9 0 0 1 3.51 15"/>
  </symbol>
  
  <!-- Remove icon -->
  <symbol id="remove" viewBox="0 0 24 24">
    <polyline points="3,6 5,6 21,6"/>
    <path d="M19,6v14a2,2 0 0,1-2,2H7a2,2 0 0,1-2-2V6m3,0V4a2,2 0 0,1,2-2h4a2,2 0 0,1,2,2v2"/>
    <line x1="10" y1="11" x2="10" y2="17"/>
    <line x1="14" y1="11" x2="14" y2="17"/>
  </symbol>
  
  <!-- Duplicate icon -->
  <symbol id="duplicate" viewBox="0 0 24 24">
    <rect x="9" y="9" width="13" height="13" rx="2" ry="2"/>
    <path d="M5 15H4a2 2 0 0 1-2-2V4a2 2 0 0 1 2-2h9a2 2 0 0 1 2 2v1"/>
  </symbol>
  
  <!-- Minimize icon -->
  <symbol id="minimize" viewBox="0 0 24 24">
    <path d="M8 3v3a2 2 0 0 1-2 2H3m18 0h-3a2 2 0 0 1-2-2V3m0 18v-3a2 2 0 0 1 2-2h3M3 16h3a2 2 0 0 1 2 2v3"/>
  </symbol>
  
  <!-- Maximize icon -->
  <symbol id="maximize" viewBox="0 0 24 24">
    <path d="M8 3H5a2 2 0 0 0-2 2v3m18 0V5a2 2 0 0 0-2-2h-3m0 18h3a2 2 0 0 0 2-2v-3M3 16v3a2 2 0 0 0 2 2h3"/>
  </symbol>
  
  <!-- Resize handle icon -->
  <symbol id="resize-handle" viewBox="0 0 24 24">
    <polyline points="15,3 21,3 21,9"/>
    <polyline points="9,21 3,21 3,15"/>
    <line x1="21" y1="3" x2="14" y2="10"/>
    <line x1="3" y1="21" x2="10" y2="14"/>
  </symbol>
  
  <!-- Arrow icons for keyboard navigation -->
  <symbol id="arrow-up" viewBox="0 0 24 24">
    <line x1="12" y1="19" x2="12" y2="5"/>
    <polyline points="5,12 12,5 19,12"/>
  </symbol>
  
  <symbol id="arrow-down" viewBox="0 0 24 24">
    <line x1="12" y1="5" x2="12" y2="19"/>
    <polyline points="5,12 12,19 19,12"/>
  </symbol>
  
  <symbol id="arrow-left" viewBox="0 0 24 24">
    <line x1="19" y1="12" x2="5" y2="12"/>
    <polyline points="12,19 5,12 12,5"/>
  </symbol>
  
  <symbol id="arrow-right" viewBox="0 0 24 24">
    <line x1="5" y1="12" x2="19" y2="12"/>
    <polyline points="12,5 19,12 12,19"/>
  </symbol>
</svg>